<svg width="144" height="144" viewBox="0 0 144 144" fill="none" xmlns="http://www.w3.org/2000/svg">
<path d="M77.4932 140.06C74.3749 143.44 37.0742 141.583 31.4564 142.012C28.0525 142.274 28.0763 133.561 28.6 126.682C42.8823 133.514 61.9969 133.68 77.4694 126.396C78.4692 131.729 79.2309 138.179 77.4932 140.06Z" fill="#02C961"/>
<path d="M103.749 59.8884C103.368 52.89 102.392 48.3673 99.0356 45.1061C93.6321 39.8454 86.7051 42.2973 64.6151 42.6067C55.9266 42.7257 42.3822 42.5591 33.67 42.3687C18.0784 42.0354 10.961 41.5117 6.81916 46.4629C5.36712 48.2244 4.6768 50.224 3.89127 57.8412C2.55825 70.7429 1.91555 77.1938 3.20096 85.5966C4.22453 92.2379 6.77155 108.71 18.007 119.47C21.0539 122.374 24.6483 124.802 28.6236 126.706C42.9059 133.538 62.0205 133.704 77.493 126.42C82.3966 124.111 86.9194 121.064 90.7994 117.232C106.058 102.212 104.939 81.788 103.749 59.8884Z" fill="#3700ED"/>
<path d="M137.311 83.0025C134.503 87.0492 130.17 90.7626 106.104 101.355C103.224 102.617 99.0109 104.426 96.0116 102.545C95.7497 102.379 93.3931 100.855 93.3693 98.1418C93.3455 95.5948 95.4165 94.0237 95.6783 93.8571C96.7019 93.381 97.8921 92.8335 99.2013 92.286C99.9154 92.0004 101.034 91.5481 102.391 91.0482C104.343 90.3341 105.843 89.8818 106.128 89.7866C115.555 86.7397 121.91 84.6926 125.766 78.694C128.099 75.0758 131.384 68.2202 128.385 63.5785C125.029 58.3654 115.769 58.9129 114.745 58.9843C112.293 59.151 109.937 59.8175 109.937 59.8175C107.342 60.5554 100.796 62.912 99.963 62.3883C99.725 62.2217 99.4869 62.0312 99.4869 62.0312C99.4869 62.0312 99.1775 61.7694 98.9157 61.4599C97.5112 59.7937 97.297 56.1279 97.297 56.1279C97.2494 55.4613 97.2018 54.4616 97.3208 53.9141C98.1539 50.1055 112.627 46.2492 125.195 51.3195C127.742 52.343 137.859 56.4373 140.477 65.816C141.929 71.0053 140.596 76.0993 140.477 76.5278C140.001 78.0751 139.192 80.2888 137.311 83.0025Z" fill="#F7B832"/>
<path d="M27.1949 36.7509C27.1949 36.7509 19.3872 29.8716 23.4577 22.3972C27.5282 14.9227 35.9548 10.2096 29.3849 3.97292L31.7891 1.16406C31.7891 1.16406 34.0504 3.11598 35.0026 7.13885C35.931 11.1617 34.3837 16.7556 31.2654 19.4217C28.1471 22.0877 23.7671 23.3255 25.6477 26.7533C27.5282 30.181 32.1937 34.561 32.1937 34.561L27.1949 36.7509Z" fill="#F7B832"/>
<path d="M51.8559 36.7509C46.7142 28.8718 46.8095 24.7299 48.1187 22.3972C50.023 18.9456 54.641 19.0408 56.3072 14.3038C57.3546 11.3521 56.5215 8.44806 56.4262 8.11481C55.8311 6.06767 54.7124 4.68704 54.0459 3.97293L56.4501 1.16406C56.4501 1.16406 58.7114 3.11598 59.6636 7.13885C60.5919 11.1617 59.0447 16.7556 55.9264 19.4217C53.4508 21.5402 50.1896 22.7542 49.8802 24.8728C49.7611 25.6107 50.0468 26.2058 50.3086 26.7533C51.118 28.61 52.5462 31.5379 54.9266 35.4179C53.903 35.8702 52.8795 36.2987 51.8559 36.7509Z" fill="#F7B832"/>
<path d="M78.6834 35.8226C72.2801 28.5624 71.8278 24.6347 72.8038 22.3972C74.1368 19.3265 78.1359 19.3027 79.8498 14.7085C80.8971 11.852 80.4449 8.94795 80.3258 8.30524C79.9926 6.35332 79.2785 4.90128 78.731 3.97293L81.1352 1.16406C81.1352 1.16406 83.3965 3.11598 84.3487 7.13885C85.1104 10.3762 84.2297 15.9225 80.6115 19.4217C78.1835 21.7545 75.565 22.1829 75.2794 24.4919C75.1842 25.2774 75.3984 25.9678 75.9697 27.1103C76.8505 28.8956 78.4691 31.6093 81.5636 34.561C80.5877 34.9894 79.6355 35.3941 78.6834 35.8226Z" fill="#F7B832"/>
<path d="M52.3326 71.1477C52.3326 71.1477 52.2373 56.1036 33.9559 61.1263C15.6745 66.1489 29.3856 82.5974 33.9559 88.5484C38.5263 94.4994 52.3326 107.711 52.3326 107.711C52.3326 107.711 71.4233 92.4998 79.6356 83.4305C87.848 74.3612 77.3505 53.3424 69.1143 56.0798C60.902 58.8411 52.3326 71.1477 52.3326 71.1477Z" fill="#FF739E"/>
</svg>
